Coordinates
version=1
nRows=29
nColumns=24
inDegrees=yes

Units are S.I. units (second, meters, Newtons, ...)
Angles are in degrees.

endheader
time	pelvis_tilt	pelvis_list	pelvis_rotation	pelvis_tx	pelvis_ty	pelvis_tz	hip_flexion_r	hip_adduction_r	hip_rotation_r	knee_angle_r	ankle_angle_r	subtalar_angle_r	mtp_angle_r	hip_flexion_l	hip_adduction_l	hip_rotation_l	knee_angle_l	ankle_angle_l	subtalar_angle_l	mtp_angle_l	lumbar_extension	lumbar_bending	lumbar_rotation
      0.68616667	      1.33641290	     -0.80956895	      6.69507307	     -0.42185522	      1.06372235	      0.30101650	     11.87101570	      1.16516334	     -5.70593180	    -26.45311644	     14.85133975	     -6.02585115	      4.16432103	     16.58891966	     -5.00948141	     -3.16823764	    -74.07518662	      1.79396888	      5.74454800	      6.17253008	    -10.92604133	      4.07448934	     -0.28695658
      0.69033333	      1.31573264	     -0.59692904	      6.65009245	     -0.41591181	      1.06517131	      0.30091874	     11.29253707	      0.98496465	     -5.65108905	    -26.00077280	     14.93950654	     -5.92944919	      4.17356821	     17.11874739	     -4.68281552	     -3.42856160	    -73.65169502	      2.17879672	      6.24959402	      6.17396664	    -10.88693067	      3.85992328	     -0.24200349
      0.69450000	      1.30431728	     -0.38950169	      6.59316527	     -0.40996090	      1.06659909	      0.30083428	     10.70012858	      0.81219157	     -5.59114579	    -25.53546669	     15.04230876	     -5.82162829	      4.18926996	     17.62059971	     -4.37313332	     -3.70317164	    -73.16441355	      2.56036228	      6.80479208	      6.17858073	    -10.85319420	      3.64659865	     -0.15620978
      0.69866667	      1.27660217	     -0.16273311	      6.52830261	     -0.40400817	      1.06800889	      0.30073833	     10.12477419	      0.61469752	     -5.52431136	    -25.06879659	     15.08791074	     -5.74350481	      4.20094595	     18.11397315	     -4.03392520	     -3.97330765	    -72.59555344	      2.92627706	      7.34748518	      6.19169662	    -10.81453217	      3.41014596	     -0.10941476
      0.70283333	      1.25382085	      0.04829750	      6.45740455	     -0.39805949	      1.06938067	      0.30064047	      9.54033606	      0.43539820	     -5.45228098	    -24.58311675	     15.13261584	     -5.66684183	      4.21276251	     18.58958360	     -3.71948774	     -4.24469740	    -71.97311020	      3.29176562	      7.91983475	      6.21024203	    -10.77207992	      3.18741534	     -0.05168003
      0.70700000	      1.23024229	      0.26489000	      6.37380242	     -0.39210647	      1.07071309	      0.30056171	      8.95865229	      0.25053078	     -5.37174500	    -24.09766410	     15.17525578	     -5.59441192	      4.22580317	     19.04463554	     -3.40502715	     -4.52242824	    -71.28500573	      3.64641844	      8.50053959	      6.23305699	    -10.73032599	      2.95873283	      0.01767022
      0.71116667	      1.23722488	      0.46346597	      6.28489272	     -0.38615063	      1.07206873	      0.30048435	      8.33393085	      0.09167574	     -5.27630678	    -23.58110888	     15.21952250	     -5.53632236	      4.24657567	     19.45180848	     -3.12220865	     -4.80004835	    -70.54170601	      3.99868429	      9.09185946	      6.26705151	    -10.72069417	      2.74462007	      0.13948600
      0.71533333	      1.21582202	      0.67591327	      6.18615569	     -0.38020112	      1.07332673	      0.30041177	      7.75036620	     -0.08833095	     -5.17805858	    -23.08414819	     15.23749950	     -5.49030284	      4.26571721	     19.86938092	     -2.81990832	     -5.07383389	    -69.73585162	      4.32971907	      9.64591806	      6.30324560	    -10.68476574	      2.51344293	      0.23149631
      0.71950000	      1.19532036	      0.89533929	      6.08083009	     -0.37426153	      1.07454340	      0.30034162	      7.16827357	     -0.27732705	     -5.07686662	    -22.58737567	     15.25325068	     -5.44203098	      4.28500591	     20.26658831	     -2.51202449	     -5.34306570	    -68.87009463	      4.64696698	     10.17806237	      6.34268908	    -10.65138238	      2.27179837	      0.32551982
      0.72366667	      1.14890375	      1.11279884	      5.97130950	     -0.36832300	      1.07567109	      0.30025672	      6.62166072	     -0.47109609	     -4.97625304	    -22.10103044	     15.24035430	     -5.40265911	      4.29626085	     20.67541859	     -2.19976119	     -5.59742763	    -67.94801492	      4.94788992	     10.65756937	      6.37305248	    -10.58792776	      2.03575825	      0.38864209
      0.72783333	      1.12899210	      1.30749911	      5.85499020	     -0.36238649	      1.07675740	      0.30020199	      6.04396425	     -0.63214468	     -4.85656943	    -21.59945234	     15.26326132	     -5.38346607	      4.31283908	     21.04579002	     -1.93222905	     -5.85635675	    -66.99033051	      5.24552419	     11.13645112	      6.41438397	    -10.54874510	      1.81366388	      0.51934241
      0.73200000	      1.10802764	      1.51445593	      5.73498203	     -0.35647578	      1.07780891	      0.30012989	      5.47252818	     -0.81113249	     -4.73493678	    -21.10302857	     15.25433537	     -5.36803173	      4.32888701	     21.39632530	     -1.64284858	     -6.09431572	    -65.96869230	      5.52290128	     11.54598264	      6.45829597	    -10.52060104	      1.58033023	      0.64436958
      0.73616667	      1.03483925	      1.72854168	      5.61529901	     -0.35055652	      1.07870366	      0.30004722	      4.97230155	     -1.00975187	     -4.63480541	    -20.63646508	     15.23268830	     -5.33815744	      4.33582595	     21.78713076	     -1.33718207	     -6.31523938	    -64.89779993	      5.78158253	     11.88063383	      6.48487470	    -10.42569920	      1.34106140	      0.70626815
      0.74033333	      1.01125725	      1.91531056	      5.48745232	     -0.34466262	      1.07960192	      0.29999437	      4.41313242	     -1.16714684	     -4.50018691	    -20.14531449	     15.24686963	     -5.34270130	      4.34865736	     22.11479257	     -1.08100877	     -6.53427780	    -63.79155244	      6.02812672	     12.20384154	      6.53003590	    -10.39060966	      1.11935228	      0.88017251
      0.74450000	      0.95066162	      2.10510191	      5.36351924	     -0.33877391	      1.08037416	      0.29991307	      3.90471763	     -1.33834658	     -4.38194033	    -19.67426455	     15.23658545	     -5.34101000	      4.35809413	     22.46690683	     -0.80897852	     -6.72414204	    -62.63675736	      6.25623891	     12.43762146	      6.57327446	    -10.31305377	      0.89802334	      1.01254377
      0.74866667	      0.89142150	      2.30022184	      5.23664455	     -0.33290043	      1.08108953	      0.29983391	      3.40216498	     -1.51861357	     -4.27476415	    -19.21304565	     15.23260784	     -5.33422525	      4.36343364	     22.79847996	     -0.53292909	     -6.90179327	    -61.43014266	      6.46272859	     12.60899824	      6.61004284	    -10.23514289	      0.66937985	      1.12681046
      0.75283333	      0.80630307	      2.47627446	      5.12056499	     -0.32704331	      1.08166410	      0.29972525	      2.93795493	     -1.68508059	     -4.18545675	    -18.77098538	     15.21674300	     -5.31836451	      4.36408794	     23.15147549	     -0.26889479	     -7.03879366	    -60.19306473	      6.67040454	     12.72540126	      6.63274869	    -10.12928357	      0.47209476	      1.20791579
      0.75700000	      0.75232645	      2.65303877	      4.99437033	     -0.32121300	      1.08223428	      0.29965069	      2.43701848	     -1.84625888	     -4.06851090	    -18.31244034	     15.23117025	     -5.31839109	      4.36381901	     23.45148885	     -0.01459012	     -7.17134538	    -58.90554357	      6.83096994	     12.75859342	      6.67352657	    -10.07135734	      0.25410795	      1.40123676
      0.76116667	      0.66503729	      2.82277225	      4.87580431	     -0.31537496	      1.08267199	      0.29954576	      1.98272444	     -2.00983365	     -3.98524512	    -17.87628895	     15.24006327	     -5.30849241	      4.36065609	     23.77260133	      0.23879389	     -7.27536908	    -57.57768110	      6.98480243	     12.74415756	      6.70507359	     -9.95967225	      0.05181707	      1.51697363
      0.76533333	      0.56339801	      2.97676539	      4.76634823	     -0.30957204	      1.08298658	      0.29941805	      1.55555327	     -2.16165317	     -3.92219018	    -17.45785941	     15.23439781	     -5.28587349	      4.35643621	     24.09989070	      0.48206901	     -7.33809654	    -56.21795935	      7.15252417	     12.69763692	      6.72295735	     -9.84126806	     -0.12651364	      1.59802711
      0.76950000	      0.48030427	      3.13076133	      4.65158053	     -0.30379054	      1.08327706	      0.29929978	      1.10589622	     -2.31130821	     -3.84417014	    -17.02905732	     15.27179504	     -5.25966304	      4.34716925	     24.38689638	      0.72358981	     -7.38073157	    -54.80687260	      7.24857071	     12.52214952	      6.75703261	     -9.75312938	     -0.31720288	      1.78264922
      0.77366667	      0.38797409	      3.27746677	      4.54268004	     -0.29802546	      1.08346730	      0.29917344	      0.67564588	     -2.45822184	     -3.79427178	    -16.61705035	     15.29902406	     -5.22059890	      4.33512042	     24.66875760	      0.95816779	     -7.39470942	    -53.35814940	      7.35461291	     12.33674000	      6.78953939	     -9.65236185	     -0.49405174	      1.91304514
      0.77783333	      0.25795279	      3.40834703	      4.43934062	     -0.29225719	      1.08351149	      0.29902589	      0.29578470	     -2.59439098	     -3.76052129	    -16.22311929	     15.31582054	     -5.18982791	      4.32516916	     24.97558237	      1.17995732	     -7.37703559	    -51.87393045	      7.46009029	     12.13132033	      6.80831301	     -9.50215796	     -0.65362610	      2.00227727
      0.78200000	      0.16744052	      3.53184587	      4.34141775	     -0.28653107	      1.08355994	      0.29887091	     -0.13171521	     -2.71984359	     -3.73487749	    -15.81313971	     15.37231584	     -5.12995689	      4.30920772	     25.22299258	      1.39611878	     -7.31991681	    -50.34602290	      7.50813603	     11.80676002	      6.83736838	     -9.40992673	     -0.80315189	      2.15026118
      0.78616667	      0.03736089	      3.64307759	      4.24684817	     -0.28080524	      1.08344627	      0.29870813	     -0.50395819	     -2.83846542	     -3.72536204	    -15.42802533	     15.42298717	     -5.06092233	      4.29082996	     25.49687667	      1.60142520	     -7.23111010	    -48.78562410	      7.56513040	     11.48315186	      6.86715105	     -9.27352900	     -0.94301051	      2.27370520
      0.79033333	     -0.08700035	      3.74160721	      4.15683638	     -0.27510194	      1.08327421	      0.29853035	     -0.87986211	     -2.94430495	     -3.72820453	    -15.04378738	     15.47704723	     -4.98341034	      4.26892648	     25.74642541	      1.79612527	     -7.10262062	    -47.18689854	      7.60664056	     11.12165668	      6.89894706	     -9.14783973	     -1.06596940	      2.39156551
      0.79450000	     -0.21895394	      3.85216895	      4.06520458	     -0.26939397	      1.08302179	      0.29837770	     -1.23900016	     -3.06539421	     -3.74690846	    -14.68107987	     15.51895827	     -4.91346559	      4.25189565	     25.97540405	      1.99845770	     -6.95413110	    -45.53804103	      7.64754796	     10.77412887	      6.91824567	     -9.01254926	     -1.21544372	      2.47348226
      0.79866667	     -0.34914832	      3.92858032	      3.98544332	     -0.26372105	      1.08268851	      0.29816835	     -1.60119063	     -3.15190907	     -3.78172303	    -14.30850987	     15.62035623	     -4.77930032	      4.22439955	     26.19413109	      2.17645037	     -6.74227873	    -43.86998827	      7.63559752	     10.30802396	      6.95206252	     -8.89278390	     -1.30410726	      2.60264786
      0.80283333	     -0.47967385	      4.00480769	      3.90155945	     -0.25804100	      1.08228823	      0.29799484	     -1.95280225	     -3.23746620	     -3.82478396	    -13.95778356	     15.66848245	     -4.70172530	      4.20271087	     26.38660252	      2.34095017	     -6.52207966	    -42.16343046	      7.65538059	      9.94097911	      6.97234465	     -8.76505701	     -1.41255186	      2.67883942
